<svg width="167" height="98" viewBox="0 0 167 98" fill="none" xmlns="http://www.w3.org/2000/svg">
<path d="M61.5758 35.0436C61.1932 34.5368 60.5902 34.1802 59.8993 34.052C59.2085 33.9239 58.4861 34.0346 57.891 34.36L39.2246 44.5874C38.849 44.7933 38.54 45.0762 38.3261 45.4103C38.1121 45.7444 38 46.1189 38 46.4995C38 46.8801 38.1121 47.2546 38.3261 47.5887C38.54 47.9228 38.849 48.2057 39.2246 48.4116L57.891 58.6391C58.486 58.965 59.2086 59.0762 59.8997 58.9481C60.5909 58.82 61.1941 58.4631 61.5765 57.956C61.959 57.4489 62.0894 56.833 61.9391 56.244C61.7888 55.6549 61.3701 55.1408 60.7751 54.8149L45.5982 46.4995L60.775 38.1841C61.0696 38.0228 61.324 37.8135 61.5237 37.5683C61.7234 37.3232 61.8644 37.0469 61.9388 36.7552C62.0131 36.4636 62.0193 36.1623 61.9571 35.8686C61.8948 35.5749 61.7652 35.2946 61.5758 35.0436Z" fill="#004C54"/>
<path d="M107.775 44.588L89.109 34.3609C88.514 34.035 87.7914 33.9238 87.1003 34.0519C86.4091 34.18 85.8059 34.5369 85.4235 35.044C85.041 35.5511 84.9106 36.1669 85.0609 36.7559C85.2112 37.345 85.6299 37.859 86.2249 38.185L101.402 46.5L86.2249 54.815C85.9303 54.9764 85.6759 55.1857 85.4762 55.4309C85.2764 55.6761 85.1353 55.9524 85.0609 56.2441C84.9865 56.5358 84.9802 56.8371 85.0424 57.1308C85.1047 57.4245 85.2341 57.705 85.4235 57.9561C85.6129 58.2071 85.8584 58.424 86.1461 58.5942C86.4338 58.7644 86.758 58.8847 87.1003 58.9481C87.4425 59.0115 87.796 59.0169 88.1407 58.9639C88.4854 58.9108 88.8144 58.8005 89.109 58.6391L107.775 48.412C108.151 48.2062 108.46 47.9232 108.674 47.5892C108.888 47.2551 109 46.8806 109 46.5C109 46.1194 108.888 45.7449 108.674 45.4108C108.46 45.0768 108.151 44.7938 107.775 44.588H107.775Z" fill="#004C54"/>
<path d="M67.6655 62C68.2128 61.9997 68.7468 61.8538 69.195 61.5819C69.6432 61.3101 69.9839 60.9255 70.1708 60.4804L80.8355 35.1046C80.9569 34.8196 81.0121 34.5166 80.9978 34.2131C80.9836 33.9096 80.9002 33.6115 80.7524 33.3359C80.6047 33.0604 80.3955 32.8128 80.1368 32.6074C79.8782 32.402 79.5752 32.2428 79.2453 32.1389C78.9154 32.0351 78.565 31.9887 78.2143 32.0023C77.8636 32.016 77.5194 32.0894 77.2016 32.2184C76.8838 32.3475 76.5985 32.5296 76.3623 32.7542C76.126 32.9789 75.9433 33.2417 75.8247 33.5276L65.1601 58.9035C65.0139 59.252 64.9669 59.6259 65.023 59.9935C65.0791 60.3611 65.2367 60.7116 65.4824 61.0153C65.7282 61.3191 66.0549 61.5671 66.4349 61.7385C66.8149 61.9099 67.237 61.9996 67.6655 62H67.6655Z" fill="#004C54"/>
<path d="M162.091 46.6436C161.914 46.2387 161.723 45.839 161.516 45.4444C162.272 44.3895 162.594 43.1443 162.43 41.911C162.266 40.6778 161.624 39.5288 160.61 38.6506L158.159 36.5294C157.144 35.652 155.817 35.0971 154.392 34.9548C152.966 34.8125 151.528 35.0912 150.309 35.7456C149.853 35.5667 149.391 35.4011 148.923 35.2486C148.595 34.0407 147.805 32.9641 146.682 32.193C145.558 31.422 144.167 31.0016 142.733 31H139.267C137.833 31.0016 136.442 31.4219 135.318 32.193C134.195 32.9641 133.405 34.0407 133.077 35.2486C132.609 35.401 132.147 35.5667 131.691 35.7456C130.472 35.0912 129.034 34.8126 127.608 34.9548C126.183 35.0971 124.856 35.6519 123.841 36.5293L121.39 38.6508C120.376 39.529 119.734 40.6779 119.57 41.9112C119.406 43.1444 119.728 44.3896 120.484 45.4445C120.277 45.8386 120.086 46.2383 119.909 46.6436C118.514 46.9276 117.27 47.611 116.379 48.5832C115.488 49.5553 115.002 50.7592 115 52V55C115.002 56.2408 115.488 57.4447 116.379 58.4169C117.27 59.389 118.514 60.0724 119.909 60.3565C120.086 60.7615 120.277 61.1612 120.484 61.5555C119.728 62.6104 119.406 63.8555 119.57 65.0888C119.734 66.322 120.376 67.4709 121.39 68.3491L123.841 70.4706C124.856 71.348 126.183 71.9029 127.608 72.0452C129.034 72.1874 130.472 71.9088 131.691 71.2543C132.147 71.4332 132.609 71.5989 133.077 71.7514C133.405 72.9593 134.195 74.0359 135.318 74.807C136.442 75.578 137.833 75.9984 139.267 76H142.733C144.167 75.9984 145.558 75.578 146.682 74.807C147.805 74.0359 148.595 72.9593 148.923 71.7514C149.391 71.599 149.853 71.4333 150.309 71.2543C151.528 71.9087 152.966 72.1874 154.391 72.0452C155.817 71.903 157.144 71.3481 158.159 70.4707L160.61 68.3493C161.624 67.4711 162.266 66.3221 162.43 65.0889C162.595 63.8556 162.272 62.6104 161.516 61.5555C161.723 61.1615 161.914 60.7618 162.091 60.3564C163.486 60.0724 164.73 59.389 165.621 58.4168C166.512 57.4447 166.998 56.2408 167 55V52C166.998 50.7592 166.512 49.5553 165.621 48.5832C164.73 47.611 163.486 46.9276 162.091 46.6436ZM161.8 55C161.8 55.1313 161.77 55.2614 161.712 55.3827C161.654 55.504 161.569 55.6143 161.462 55.7071C161.354 55.8 161.227 55.8737 161.087 55.9239C160.947 55.9742 160.796 56 160.644 56H158.089C157.656 58.2306 156.643 60.3467 155.125 62.1883L156.933 63.7531C157.041 63.8459 157.126 63.9562 157.184 64.0775C157.242 64.1988 157.272 64.3289 157.272 64.4602C157.272 64.5915 157.242 64.7216 157.184 64.8429C157.126 64.9642 157.041 65.0745 156.933 65.1673L154.482 67.2886C154.265 67.4762 153.972 67.5815 153.665 67.5815C153.359 67.5815 153.065 67.4761 152.848 67.2886L151.04 65.7238C148.912 67.037 146.466 67.9141 143.889 68.2888V70.5C143.889 70.6313 143.859 70.7614 143.801 70.8827C143.743 71.004 143.658 71.1143 143.55 71.2071C143.443 71.3 143.316 71.3737 143.176 71.4239C143.035 71.4742 142.885 71.5 142.733 71.5H139.267C139.115 71.5 138.965 71.4742 138.824 71.4239C138.684 71.3737 138.557 71.3 138.45 71.2071C138.342 71.1143 138.257 71.004 138.199 70.8827C138.141 70.7614 138.111 70.6313 138.111 70.5V68.2887C135.534 67.914 133.088 67.0369 130.96 65.7237L129.152 67.2885C128.935 67.4761 128.641 67.5814 128.335 67.5814C128.028 67.5815 127.735 67.4761 127.518 67.2886L125.066 65.1673C124.85 64.9797 124.728 64.7254 124.728 64.4602C124.728 64.1949 124.85 63.9406 125.066 63.753L126.875 62.1883C125.357 60.3467 124.344 58.2305 123.911 56H121.356C121.204 56 121.054 55.9741 120.913 55.9239C120.773 55.8736 120.646 55.8 120.538 55.7071C120.431 55.6143 120.346 55.504 120.288 55.3827C120.23 55.2614 120.2 55.1313 120.2 55V52C120.2 51.8687 120.23 51.7387 120.288 51.6173C120.346 51.496 120.431 51.3858 120.538 51.2929C120.646 51.2 120.773 51.1264 120.913 51.0761C121.054 51.0259 121.204 51 121.356 51H123.911C124.344 48.7694 125.357 46.6533 126.875 44.8117L125.067 43.247C124.85 43.0594 124.728 42.8051 124.728 42.5398C124.728 42.2746 124.85 42.0203 125.067 41.8327L127.518 39.7114C127.735 39.5239 128.028 39.4186 128.335 39.4186C128.641 39.4186 128.935 39.5239 129.152 39.7114L130.96 41.2762C133.088 39.963 135.534 39.086 138.111 38.7113V36.5C138.111 36.3687 138.141 36.2387 138.199 36.1173C138.257 35.996 138.342 35.8858 138.45 35.7929C138.557 35.7 138.684 35.6264 138.824 35.5761C138.965 35.5259 139.115 35.5 139.267 35.5H142.733C142.885 35.5 143.035 35.5259 143.176 35.5761C143.316 35.6264 143.443 35.7001 143.55 35.7929C143.658 35.8858 143.743 35.996 143.801 36.1173C143.859 36.2387 143.889 36.3687 143.889 36.5V38.7113C146.466 39.086 148.912 39.9631 151.04 41.2762L152.848 39.7114C153.065 39.5239 153.359 39.4186 153.665 39.4186C153.972 39.4186 154.265 39.5239 154.482 39.7114L156.933 41.8327C157.041 41.9256 157.126 42.0358 157.184 42.1572C157.242 42.2785 157.272 42.4085 157.272 42.5399C157.272 42.6712 157.242 42.8012 157.184 42.9225C157.126 43.0439 157.041 43.1541 156.933 43.247L155.125 44.8118C156.643 46.6533 157.656 48.7695 158.089 51H160.645C160.796 51 160.947 51.0259 161.087 51.0761C161.227 51.1264 161.354 51.2001 161.462 51.2929C161.569 51.3858 161.654 51.496 161.712 51.6174C161.77 51.7387 161.8 51.8687 161.8 52V55Z" fill="#004C54"/>
<path d="M141 46C139.22 46 137.48 46.4692 136 47.3482C134.52 48.2273 133.366 49.4767 132.685 50.9385C132.004 52.4003 131.826 54.0089 132.173 55.5607C132.52 57.1126 133.377 58.538 134.636 59.6569C135.895 60.7757 137.498 61.5376 139.244 61.8463C140.99 62.155 142.8 61.9965 144.444 61.391C146.089 60.7855 147.494 59.7601 148.483 58.4446C149.472 57.129 150 55.5822 150 54C150 51.8783 149.052 49.8434 147.364 48.3431C145.676 46.8429 143.387 46 141 46ZM141 57.4286C140.237 57.4286 139.491 57.2275 138.857 56.8508C138.223 56.474 137.728 55.9385 137.436 55.3121C137.145 54.6856 137.068 53.9962 137.217 53.3311C137.366 52.666 137.733 52.0551 138.273 51.5756C138.812 51.0961 139.499 50.7696 140.248 50.6373C140.996 50.505 141.771 50.5729 142.476 50.8324C143.181 51.0919 143.783 51.5314 144.207 52.0952C144.631 52.659 144.857 53.3219 144.857 54C144.856 54.909 144.449 55.7805 143.726 56.4232C143.003 57.066 142.023 57.4275 141 57.4286Z" fill="#004C54"/>
<path d="M137.52 85.4869C139.176 85.4847 140.79 85.0313 142.133 84.1909C143.476 83.3505 144.479 82.1657 145 80.8043C144.409 80.8881 143.812 80.9324 143.214 80.9367H139.71C139.206 80.9354 138.703 80.9059 138.204 80.8485C137.982 80.9042 137.751 80.9339 137.52 80.9367H21.8842C21.1875 80.936 20.5195 80.6961 20.0268 80.2696C19.5341 79.8431 19.257 79.2648 19.2562 78.6616V50C17.5209 50.2966 15.7353 50.2966 14 50V78.6616C14.0023 80.4712 14.8337 82.2061 16.3118 83.4856C17.7898 84.7652 19.7939 85.4849 21.8842 85.4869H69.1896V93.4498H61.3054C60.6084 93.4498 59.9399 93.6895 59.4471 94.1161C58.9542 94.5428 58.6773 95.1215 58.6773 95.7249C58.6773 96.3283 58.9542 96.907 59.4471 97.3336C59.9399 97.7603 60.6084 98 61.3054 98H98.0985C98.7955 98 99.464 97.7603 99.9568 97.3336C100.45 96.907 100.727 96.3283 100.727 95.7249C100.727 95.1215 100.45 94.5428 99.9568 94.1161C99.464 93.6895 98.7955 93.4498 98.0985 93.4498H90.2143V85.4869L137.52 85.4869ZM84.9581 93.4498H74.4458V85.4869H84.9581V93.4498Z" fill="#004C54"/>
<path d="M142.823 25.8082C143.554 25.8133 144.283 25.8775 145 26V14.6781C144.998 12.9075 144.171 11.2101 142.702 9.95809C141.232 8.70613 139.24 8.00193 137.162 8H38C38.561 9.44359 38.925 10.9375 39.0846 12.452H137.162C137.855 12.4527 138.519 12.6875 139.009 13.1048C139.499 13.5221 139.774 14.0879 139.775 14.6781V25.8082H142.823Z" fill="#004C54"/>
<path d="M7.99176 27.5946V37.8648C7.96284 39.9932 8.89491 42.0449 10.5836 43.5699C12.2723 45.0949 14.5797 45.9688 17 46C19.4203 45.9688 21.7278 45.0949 23.4164 43.5699C25.1051 42.0449 26.0372 39.9932 26.0083 37.8647V27.5946C28.6891 26.0401 30.8412 23.8761 32.2358 21.3324C33.6304 18.7888 34.2156 15.9604 33.9291 13.1478C33.6426 10.3352 32.4952 7.64329 30.6087 5.35808C28.7222 3.07286 26.1671 1.27965 23.2147 0.168892C22.8176 0.0271391 22.3869 -0.0266245 21.9606 0.0123303C21.5344 0.0512852 21.1255 0.181766 20.77 0.392293C20.4145 0.60282 20.1233 0.886943 19.9219 1.21967C19.7206 1.5524 19.6153 1.92354 19.6154 2.30044V13.7823L14.3846 13.7318V2.30044C14.3847 1.92354 14.2794 1.5524 14.0781 1.21967C13.8768 0.886937 13.5855 0.602813 13.23 0.392284C12.8745 0.181756 12.4657 0.0512748 12.0394 0.0123194C11.6131 -0.0266361 11.1824 0.0271277 10.7853 0.168881C7.83293 1.27964 5.27781 3.07285 3.39132 5.35807C1.50482 7.64328 0.357389 10.3352 0.0709004 13.1478C-0.215589 15.9604 0.369561 18.7888 1.7642 21.3324C3.15883 23.8761 5.31088 26.0401 7.99176 27.5946ZM9.15386 6.4467V13.7318C9.14795 14.958 9.69531 16.1363 10.6759 17.0081C11.6565 17.8799 12.9902 18.3741 14.3846 18.3823H19.6154C21.0098 18.3741 22.3435 17.8799 23.3241 17.0081C24.3047 16.1363 24.8521 14.958 24.8461 13.7318V6.4467C26.0972 7.48241 27.0915 8.73426 27.7665 10.1237C28.4416 11.5132 28.783 13.0104 28.7692 14.5213C28.7958 16.5148 28.1958 18.476 27.0353 20.1886C25.8747 21.9011 24.1988 23.2985 22.1925 24.2266C21.7662 24.4205 21.4087 24.7137 21.1592 25.0742C20.9096 25.4347 20.7776 25.8485 20.7775 26.2706V37.8647C20.8076 38.7736 20.4269 39.6558 19.719 40.3184C19.011 40.981 18.0333 41.3699 17 41.4001C15.9667 41.3699 14.9891 40.981 14.2811 40.3184C13.5731 39.6558 13.1925 38.7735 13.2225 37.8647V26.2705C13.2225 25.8485 13.0904 25.4346 12.8409 25.0741C12.5913 24.7136 12.2339 24.4205 11.8076 24.2266C9.80119 23.2985 8.12529 21.9011 6.96476 20.1885C5.80423 18.476 5.20417 16.5148 5.23079 14.5213C5.21703 13.0104 5.55839 11.5132 6.23347 10.1237C6.90855 8.73425 7.9028 7.48241 9.15386 6.4467Z" fill="#004C54"/>
</svg>
