<svg width="110" height="121" viewBox="0 0 110 121" fill="none" xmlns="http://www.w3.org/2000/svg">
<path fill-rule="evenodd" clip-rule="evenodd" d="M55 35.9388C32.7574 35.9388 14.761 52.0119 14.761 71.8776C14.761 91.7433 32.7574 107.816 55 107.816C77.2426 107.816 95.239 91.7433 95.239 71.8776C95.239 52.0119 77.2426 35.9388 55 35.9388ZM55 67.0015C57.4265 67.0015 59.4485 68.8075 59.4485 70.9746C59.4485 73.1418 57.4265 74.9478 55 74.9478C52.5735 74.9478 50.5515 73.1418 50.5515 70.9746C50.5515 68.8075 52.5735 67.0015 55 67.0015ZM71.1765 54.3597C40.239 67.0015 49.3382 58.694 35.1838 86.506C34.1728 88.4925 36.5993 90.4791 38.6213 89.5761C69.761 76.9343 60.6618 85.0612 74.614 57.4299C75.625 55.4433 73.4007 53.4567 71.1765 54.3597ZM57.6287 22.9358V19.8657H61.875C63.2904 19.8657 64.3015 18.7821 64.3015 17.5179V8.48806V8.30746V8.12687C63.6949 3.43134 59.6507 0 55 0C50.1471 0 46.1029 3.61194 45.4963 8.30746V17.5179C45.4963 18.7821 46.7096 19.8657 48.125 19.8657H52.3713V22.9358C23.2537 24.0194 0 45.691 0 71.8776C0 98.9672 24.6691 121 55 121C85.3309 121 110 98.9672 110 71.8776C110 45.691 86.7463 24.0194 57.6287 22.9358ZM55 116.124C27.7022 116.124 5.45956 96.2582 5.45956 71.8776C5.45956 47.497 27.7022 27.6313 55 27.6313C82.2978 27.6313 104.54 47.497 104.54 71.8776C104.54 96.2582 82.2978 116.124 55 116.124ZM57.6287 103.121V100.051C57.6287 96.9806 52.3713 96.9806 52.3713 100.051V103.121C35.1838 102.037 21.2316 89.5761 20.0184 74.2254H23.4559C26.8934 74.2254 26.8934 69.5299 23.4559 69.5299H20.0184C21.2316 54.1791 35.1838 41.8985 52.3713 40.6343V43.7045C52.3713 46.7746 57.6287 46.7746 57.6287 43.7045V40.6343C74.8162 41.8985 88.5662 54.1791 89.9816 69.5299H86.5441C83.1066 69.5299 83.1066 74.2254 86.5441 74.2254H89.9816C88.5662 89.5761 74.8162 102.037 57.6287 103.121Z" fill="#004C54"/>
</svg>
