<svg width="110" height="96" viewBox="0 0 110 96" fill="none" xmlns="http://www.w3.org/2000/svg">
<path d="M25.6667 6.39111H22.0001V9.58706H25.6667V6.39111Z" fill="#004C54"/>
<path d="M33.0001 6.39111H29.3333V9.58706H33.0001V6.39111Z" fill="#004C54"/>
<path d="M40.3334 6.39111H36.6667V9.58706H40.3334V6.39111Z" fill="#004C54"/>
<path d="M1.83333 95.8744H58.6665C59.0291 95.8743 59.3834 95.7805 59.6848 95.6049C59.9863 95.4294 60.2212 95.1798 60.3599 94.8879C60.4986 94.596 60.535 94.2747 60.4642 93.9648C60.3935 93.6549 60.219 93.3702 59.9627 93.1467L3.12949 43.6116C2.8731 43.3882 2.54646 43.2361 2.19089 43.1745C1.83531 43.1129 1.46675 43.1445 1.1318 43.2654C0.796848 43.3863 0.51055 43.5911 0.309096 43.8538C0.107642 44.1165 7.74111e-05 44.4254 0 44.7414V94.2765C0 94.7002 0.193154 95.1067 0.536969 95.4063C0.880785 95.706 1.3471 95.8744 1.83333 95.8744ZM3.66666 48.5987L54.2409 92.6785H3.66666V48.5987Z" fill="#004C54"/>
<path d="M32.4626 83.5589L14.1295 67.5797C13.8731 67.3563 13.5464 67.2041 13.1909 67.1425C12.8353 67.0809 12.4667 67.1125 12.1318 67.2334C11.7968 67.3543 11.5105 67.5591 11.3091 67.8218C11.1076 68.0845 11.0001 68.3934 11 68.7094V84.6886C11 85.1124 11.1932 85.5188 11.537 85.8185C11.8808 86.1182 12.3471 86.2865 12.8333 86.2865H31.1665C31.529 86.2865 31.8834 86.1927 32.1848 86.0171C32.4862 85.8415 32.7211 85.592 32.8599 85.3001C32.9986 85.0081 33.0349 84.6869 32.9642 84.377C32.8935 84.067 32.7189 83.7824 32.4626 83.5589ZM14.6666 83.0907V72.5668L26.7409 83.0907H14.6666Z" fill="#004C54"/>
<path d="M107.943 13.6397C109.259 12.4925 109.999 10.9366 109.999 9.31417C109.999 7.69179 109.259 6.13585 107.943 4.98865C106.627 3.84145 104.842 3.19696 102.98 3.19696C101.119 3.19696 99.3335 3.84145 98.0173 4.98865L95.2673 7.3855C95.0969 5.38161 94.0648 3.50765 92.3775 2.13835C90.6902 0.769062 88.4721 0.00537152 86.1666 0H23.8333C21.403 0.00253724 19.0731 0.845102 17.3547 2.34288C15.6362 3.84065 14.6695 5.87134 14.6666 7.98951V49.535H18.3333V7.98951C18.3333 6.71814 18.9128 5.49884 19.9442 4.59985C20.9757 3.70085 22.3746 3.1958 23.8333 3.1958H86.1666C87.6253 3.1958 89.0243 3.70085 90.0557 4.59985C91.0872 5.49884 91.6666 6.71814 91.6666 7.98951V10.5238L74.4076 25.5664H60.9326C59.6265 22.6517 57.4508 20.0939 54.6306 18.1574C51.8104 16.2209 48.448 14.9761 44.891 14.5516C41.3339 14.1271 37.7113 14.5384 34.3977 15.7428C31.0841 16.9472 28.1996 18.9012 26.0426 21.4027C23.8856 23.9041 22.5342 26.8623 22.1282 29.9714C21.7222 33.0806 22.2764 36.2278 23.7333 39.0877C25.1902 41.9477 27.4971 44.4166 30.4155 46.2392C33.3339 48.0618 36.7578 49.1721 40.3333 49.4551V55.9266C40.3333 56.3504 40.5265 56.7568 40.8703 57.0565C41.2141 57.3561 41.6804 57.5245 42.1666 57.5245H82.5C82.9862 57.5245 83.4525 57.3561 83.7963 57.0565C84.1402 56.7568 84.3333 56.3504 84.3333 55.9266V34.2175L91.6666 27.8259V60.7203H49.5C49.0137 60.7203 48.5474 60.8886 48.2036 61.1883C47.8598 61.488 47.6666 61.8944 47.6666 62.3182V75.1014C47.6666 75.5252 47.8598 75.9316 48.2036 76.2313C48.5474 76.531 49.0137 76.6993 49.5 76.6993H91.6666V78.2972C91.6666 79.5686 91.0872 80.7879 90.0557 81.6869C89.0243 82.5859 87.6253 83.0909 86.1666 83.0909H56.8333V86.2867H86.1666C88.5969 86.2842 90.9268 85.4416 92.6452 83.9438C94.3637 82.4461 95.3304 80.4154 95.3333 78.2972V76.6993H108.167C108.653 76.6993 109.119 76.531 109.463 76.2313C109.807 75.9316 110 75.5252 110 75.1014V62.3182C110 61.8944 109.807 61.488 109.463 61.1883C109.119 60.8886 108.653 60.7203 108.167 60.7203H95.3333V24.6301L107.943 13.6397ZM100.61 7.24808C100.918 6.96712 101.289 6.74272 101.698 6.58806C102.108 6.43339 102.549 6.35157 102.995 6.34739C103.441 6.34322 103.884 6.41676 104.298 6.56373C104.711 6.71069 105.086 6.9281 105.402 7.20322C105.718 7.47834 105.967 7.80563 106.136 8.16589C106.304 8.52614 106.389 8.91212 106.384 9.30117C106.379 9.69023 106.285 10.0745 106.108 10.4316C105.93 10.7886 105.673 11.1111 105.351 11.3803L104.5 12.1217L99.759 7.98951L100.61 7.24808ZM58.6666 31.958C58.6611 35.4936 57.1632 38.9037 54.4584 41.5385C51.7535 44.1733 48.0309 45.8486 44 46.2449V28.7622H58.2413C58.5202 29.8102 58.6629 30.8822 58.6666 31.958ZM40.3333 27.1643V46.2449C37.4864 45.9716 34.7701 45.0571 32.4516 43.5913C30.1332 42.1256 28.2924 40.1591 27.1104 37.8852C25.9283 35.6114 25.4458 33.1085 25.7101 30.6228C25.9745 28.1371 26.9767 25.7542 28.6181 23.7085C30.2595 21.6628 32.4837 20.0247 35.0717 18.9553C37.6598 17.886 40.5227 17.4222 43.3787 17.6097C46.2348 17.7972 48.9857 18.6294 51.3609 20.0245C53.736 21.4196 55.6536 23.3295 56.925 25.5664H42.1666C41.6804 25.5664 41.2141 25.7348 40.8703 26.0344C40.5265 26.3341 40.3333 26.7405 40.3333 27.1643ZM80.6666 54.3287H44V49.4551C46.7954 49.2419 49.5085 48.5205 51.9645 47.3374C54.4204 46.1543 56.5647 44.5357 58.259 42.5861C59.9533 40.6365 61.1601 38.3991 61.8015 36.0181C62.443 33.6371 62.5048 31.1654 61.9831 28.7622H70.741L66.5371 32.4262C66.2807 32.6489 66.1064 32.9332 66.0366 33.2428L64.2033 41.2323C64.1502 41.464 64.1567 41.7031 64.2223 41.9324C64.288 42.1617 64.4112 42.3754 64.583 42.5582C64.7548 42.741 64.9711 42.8883 65.2161 42.9895C65.4611 43.0907 65.7288 43.1432 66 43.1434C66.1232 43.1443 66.2461 43.1335 66.3666 43.1114L75.5333 41.5135C75.8885 41.4527 76.2147 41.3008 76.4701 41.0773L80.6666 37.4133V54.3287ZM68.959 36.7965L71.4486 38.9664L68.332 39.5081L68.959 36.7965ZM99 63.9161V67.1119H102.667V63.9161H106.333V73.5035H51.3333V63.9161H55V67.1119H58.6666V63.9161H62.3333V67.1119H66V63.9161H69.6666V67.1119H73.3333V63.9161H77V67.1119H80.6666V63.9161H84.3333V67.1119H88V63.9161H91.6666V67.1119H95.3333V63.9161H99ZM75.1666 37.6881L70.4256 33.5559L97.1666 10.2489L101.908 14.3811L75.1666 37.6881Z" fill="#004C54"/>
</svg>
