<svg width="72" height="72" viewBox="0 0 72 72" fill="none" xmlns="http://www.w3.org/2000/svg">
<path d="M71.9999 32.3935C72.0099 29.8516 71.3504 27.3521 70.088 25.1481C68.8257 22.9442 67.0053 21.1141 64.8113 19.8431C64.8654 19.2192 64.8654 18.5917 64.8113 17.9677C64.8113 15.0983 63.6753 12.3463 61.6531 10.3173C59.6309 8.28828 56.8882 7.14839 54.0284 7.14839H53.3814C52.7829 5.48333 51.7864 3.99106 50.4792 2.80242C49.172 1.61378 47.5942 0.765089 45.8841 0.330764C44.1739 -0.103561 42.3837 -0.110253 40.6703 0.311277C38.957 0.732806 37.3729 1.56968 36.057 2.74851C34.741 1.56968 33.1569 0.732806 31.4436 0.311277C29.7303 -0.110253 27.94 -0.103561 26.2299 0.330764C24.5197 0.765089 22.9419 1.61378 21.6347 2.80242C20.3276 3.99106 19.331 5.48333 18.7325 7.14839H18.0855C15.2257 7.14839 12.483 8.28828 10.4608 10.3173C8.43866 12.3463 7.30261 15.0983 7.30261 17.9677C7.24851 18.5917 7.24851 19.2192 7.30261 19.8431C5.2627 21 3.53554 22.6397 2.27146 24.6194C1.00738 26.5991 0.244703 28.8588 0.0498155 31.2018C-0.145071 33.5448 0.23374 35.9 1.15327 38.0626C2.07281 40.2251 3.5052 42.1294 5.32575 43.6096C4.14779 45.8141 3.56136 48.288 3.62401 50.7886C3.68666 53.2892 4.39624 55.7304 5.6831 57.8728C6.96996 60.0151 8.78988 61.7849 10.9642 63.0084C13.1386 64.2319 15.5926 64.8671 18.0855 64.8516H18.7325C19.331 66.5167 20.3276 68.0089 21.6347 69.1976C22.9419 70.3862 24.5197 71.2349 26.2299 71.6692C27.94 72.1036 29.7303 72.1103 31.4436 71.6887C33.1569 71.2672 34.741 70.4303 36.057 69.2515C37.3729 70.4303 38.957 71.2672 40.6703 71.6887C42.3837 72.1103 44.1739 72.1036 45.8841 71.6692C47.5942 71.2349 49.172 70.3862 50.4792 69.1976C51.7864 68.0089 52.7829 66.5167 53.3814 64.8516H54.0284C56.5061 64.8359 58.9376 64.178 61.0872 62.9417C63.2368 61.7054 65.0315 59.9326 66.2972 57.7954C67.563 55.6582 68.2567 53.229 68.3112 50.7436C68.3658 48.2581 67.7792 45.8006 66.6085 43.6096C68.2849 42.2628 69.6394 40.5563 70.5724 38.6153C71.5054 36.6744 71.9932 34.5484 71.9999 32.3935ZM32.4627 23.5577C31.6798 23.1085 30.8625 22.7226 30.0185 22.4037C29.1129 22.0976 28.1232 22.165 27.2672 22.5911C26.4111 23.0172 25.7588 23.7671 25.4538 24.6757C25.1487 25.5844 25.2159 26.5774 25.6406 27.4364C26.0653 28.2953 26.8126 28.9499 27.7182 29.2559C29.1018 29.7578 30.2986 30.6736 31.147 31.8796C31.9955 33.0856 32.4547 34.5238 32.4627 36V41.59C31.6798 41.1407 30.8625 40.7548 30.0185 40.4359C29.1129 40.1299 28.1232 40.1973 27.2672 40.6234C26.4111 41.0495 25.7588 41.7993 25.4538 42.708C25.1487 43.6167 25.2159 44.6097 25.6406 45.4687C26.0653 46.3276 26.8126 46.9821 27.7182 47.2882C29.1018 47.7901 30.2986 48.7058 31.147 49.9119C31.9955 51.1179 32.4547 52.5561 32.4627 54.0323V61.2452C32.4627 62.2016 32.084 63.119 31.4099 63.7953C30.7359 64.4716 29.8216 64.8516 28.8684 64.8516C28.173 64.8471 27.4939 64.6402 26.9133 64.2561C26.3328 63.872 25.8757 63.3272 25.5976 62.6877C26.2002 62.3329 26.7768 61.9352 27.3228 61.4976C27.6863 61.1945 27.9867 60.8225 28.2068 60.4029C28.427 59.9834 28.5627 59.5244 28.6061 59.0522C28.6494 58.58 28.5997 58.1038 28.4597 57.6509C28.3197 57.198 28.0922 56.7772 27.7901 56.4125C27.488 56.0478 27.1173 55.7464 26.6991 55.5255C26.2809 55.3046 25.8235 55.1685 25.3529 55.1249C24.8823 55.0814 24.4077 55.1313 23.9563 55.2718C23.505 55.4123 23.0856 55.6406 22.7221 55.9437C21.4243 57.0399 19.7819 57.6404 18.0855 57.6387C16.179 57.6387 14.3505 56.8788 13.0024 55.5261C11.6543 54.1734 10.8969 52.3388 10.8969 50.4258C10.9141 49.0683 11.3128 47.7432 12.0471 46.603C12.8537 46.7481 13.6717 46.8206 14.4912 46.8194C15.4445 46.8194 16.3587 46.4394 17.0327 45.763C17.7068 45.0867 18.0855 44.1694 18.0855 43.2129C18.0855 42.2564 17.7068 41.3391 17.0327 40.6628C16.3587 39.9864 15.4445 39.6064 14.4912 39.6064C13.6422 39.6113 12.8002 39.4522 12.0111 39.1376C10.7184 38.6698 9.58644 37.84 8.74928 36.7466C7.91212 35.6531 7.40486 34.3418 7.28761 32.9679C7.17036 31.5941 7.44802 30.2153 8.0877 28.995C8.72739 27.7746 9.70228 26.7638 10.8969 26.0823C11.4076 26.5538 11.9612 26.9763 12.5503 27.3445C13.3796 27.8228 14.3643 27.9508 15.2878 27.7006C16.2113 27.4504 16.9978 26.8423 17.4745 26.0101C17.9511 25.178 18.0787 24.1899 17.8293 23.2633C17.5799 22.3368 16.9739 21.5475 16.1446 21.0693C15.6386 20.7892 15.2166 20.3783 14.9225 19.8792C14.5902 19.3001 14.4399 18.6339 14.4912 17.9677C14.4912 17.0112 14.8699 16.0939 15.5439 15.4176C16.218 14.7413 17.1322 14.3613 18.0855 14.3613C18.3359 14.3262 18.5899 14.3262 18.8403 14.3613C19.0306 14.9407 19.2587 15.507 19.5232 16.0563C19.758 16.4696 20.072 16.8321 20.4471 17.1231C20.8221 17.4141 21.2508 17.6278 21.7085 17.7518C22.1662 17.8758 22.6439 17.9078 23.1139 17.8458C23.584 17.7838 24.0372 17.6292 24.4474 17.3907C25.2443 16.9096 25.8243 16.1374 26.0656 15.2362C26.3069 14.335 26.1906 13.3751 25.7413 12.5581C25.4397 12.0049 25.2792 11.3854 25.2741 10.7548C25.2741 9.79835 25.6528 8.88103 26.3268 8.20469C27.0009 7.52835 27.9151 7.14839 28.8684 7.14839C29.8216 7.14839 30.7359 7.52835 31.4099 8.20469C32.084 8.88103 32.4627 9.79835 32.4627 10.7548V23.5577ZM60.1028 39.1376C59.3137 39.4522 58.4717 39.6113 57.6227 39.6064C56.6694 39.6064 55.7552 39.9864 55.0812 40.6628C54.4071 41.3391 54.0284 42.2564 54.0284 43.2129C54.0284 44.1694 54.4071 45.0867 55.0812 45.763C55.7552 46.4394 56.6694 46.8194 57.6227 46.8194C58.4422 46.8206 59.2602 46.7481 60.0668 46.603C60.8011 47.7432 61.1998 49.0683 61.217 50.4258C61.217 52.3388 60.4596 54.1734 59.1115 55.5261C57.7634 56.8788 55.935 57.6387 54.0284 57.6387C52.332 57.6404 50.6896 57.0399 49.3918 55.9437C48.6578 55.3315 47.7115 55.037 46.761 55.1249C45.8106 55.2129 44.9339 55.676 44.3238 56.4125C43.7137 57.149 43.4202 58.0985 43.5079 59.0522C43.5955 60.0058 44.0571 60.8855 44.7911 61.4976C45.3371 61.9352 45.9137 62.3329 46.5163 62.6877C46.2382 63.3272 45.7812 63.872 45.2006 64.2561C44.62 64.6402 43.9409 64.8471 43.2455 64.8516C42.2923 64.8516 41.3781 64.4716 40.704 63.7953C40.0299 63.119 39.6512 62.2016 39.6512 61.2452V54.0323C39.6592 52.5561 40.1185 51.1179 40.9669 49.9119C41.8153 48.7058 43.0121 47.7901 44.3957 47.2882C45.3013 46.9821 46.0487 46.3276 46.4733 45.4687C46.898 44.6097 46.9652 43.6167 46.6601 42.708C46.3551 41.7993 45.7028 41.0495 44.8467 40.6234C43.9907 40.1973 43.001 40.1299 42.0954 40.4359C41.2514 40.7548 40.4341 41.1407 39.6512 41.59V36C39.6592 34.5238 40.1185 33.0856 40.9669 31.8796C41.8153 30.6736 43.0121 29.7578 44.3957 29.2559C44.8441 29.1044 45.2584 28.8657 45.6149 28.5535C45.9713 28.2413 46.263 27.8617 46.4733 27.4364C46.6836 27.0111 46.8083 26.5484 46.8404 26.0747C46.8724 25.601 46.8112 25.1257 46.6601 24.6757C46.5091 24.2258 46.2712 23.8101 45.96 23.4525C45.6489 23.0948 45.2706 22.8021 44.8467 22.5911C44.4228 22.3801 43.9617 22.255 43.4896 22.2228C43.0175 22.1907 42.5438 22.2521 42.0954 22.4037C41.2514 22.7226 40.4341 23.1085 39.6512 23.5577V10.7548C39.6512 9.79835 40.0299 8.88103 40.704 8.20469C41.3781 7.52835 42.2923 7.14839 43.2455 7.14839C44.1988 7.14839 45.113 7.52835 45.7871 8.20469C46.4612 8.88103 46.8398 9.79835 46.8398 10.7548C46.8347 11.3854 46.6742 12.0049 46.3726 12.5581C46.1334 12.9675 45.9772 13.4203 45.9128 13.8905C45.8484 14.3607 45.8772 14.839 45.9974 15.298C46.1176 15.757 46.3269 16.1877 46.6133 16.5654C46.8998 16.943 47.2577 17.2603 47.6665 17.4989C48.0768 17.7374 48.5299 17.892 49 17.954C49.4701 18.016 49.9477 17.984 50.4054 17.86C50.8631 17.736 51.2918 17.5223 51.6669 17.2313C52.0419 16.9403 52.3559 16.5778 52.5907 16.1645C52.8597 15.5801 53.0879 14.9775 53.2736 14.3613C53.524 14.3262 53.778 14.3262 54.0284 14.3613C54.9817 14.3613 55.8959 14.7413 56.57 15.4176C57.244 16.0939 57.6227 17.0112 57.6227 17.9677C57.6172 18.6747 57.4047 19.3645 57.0117 19.9513C56.7177 20.4193 56.3094 20.8041 55.8256 21.0693C54.9962 21.5475 54.3902 22.3368 54.1408 23.2633C53.8914 24.1899 54.019 25.178 54.4957 26.0101C54.9723 26.8423 55.7589 27.4504 56.6823 27.7006C57.6058 27.9508 58.5905 27.8228 59.4199 27.3445C60.0652 26.9943 60.6682 26.5708 61.217 26.0823C62.4157 26.7517 63.3984 27.7514 64.0492 28.9632C64.6999 30.175 64.9915 31.5484 64.8895 32.9211C64.7874 34.2938 64.296 35.6085 63.4733 36.7101C62.6506 37.8116 61.531 38.654 60.2465 39.1376H60.1028Z" fill="url(#paint0_linear)"/>
<defs>
<linearGradient id="paint0_linear" x1="36" y1="0" x2="36" y2="72" gradientUnits="userSpaceOnUse">
<stop stop-color="#9B51E0"/>
<stop offset="1" stop-color="#31A9AB"/>
</linearGradient>
</defs>
</svg>
