<svg width="91" height="99" viewBox="0 0 91 99" fill="none" xmlns="http://www.w3.org/2000/svg">
<path d="M81.3347 52.7547C81.8364 52.7547 82.3175 52.581 82.6722 52.2718C83.0269 51.9626 83.2262 51.5433 83.2262 51.106V8.24188C83.2262 7.80464 83.0269 7.38531 82.6722 7.07613C82.3175 6.76696 81.8364 6.59326 81.3347 6.59326H52.9619C52.4603 6.59336 51.9792 6.76711 51.6246 7.07631L45.3958 12.5052L39.1671 7.07631C38.8124 6.76711 38.3314 6.59336 37.8297 6.59326H9.45695C8.95529 6.59326 8.47417 6.76696 8.11944 7.07613C7.76471 7.38531 7.56543 7.80464 7.56543 8.24188V51.106C7.56543 51.5433 7.76471 51.9626 8.11944 52.2718C8.47417 52.581 8.95529 52.7547 9.45695 52.7547H43.5043V62.8294C42.2748 61.7277 40.8044 60.8521 39.1799 60.2544C37.5555 59.6566 35.81 59.3488 34.0467 59.3491H22.6976C22.1959 59.3491 21.7148 59.5228 21.3601 59.832C21.0054 60.1412 20.8061 60.5605 20.8061 60.9978C20.8101 64.0574 22.2064 66.9907 24.6886 69.1542C27.1708 71.3176 30.5363 72.5346 34.0467 72.5381H43.5043V75.8353H22.6976C21.1926 75.8353 19.7493 76.3564 18.6851 77.284C17.6209 78.2115 17.023 79.4695 17.023 80.7812C17.023 82.0929 17.6209 83.3509 18.6851 84.2785C19.7493 85.206 21.1926 85.7271 22.6976 85.7271H23.0759L26.2064 97.6351C26.3019 97.999 26.5364 98.324 26.8714 98.5567C27.2064 98.7894 27.6222 98.9161 28.0506 98.916H62.7354C63.1638 98.9161 63.5795 98.7894 63.9146 98.5567C64.2496 98.324 64.4841 97.999 64.5796 97.6351L67.7158 85.7271H68.0941C69.5991 85.7271 71.0424 85.206 72.1066 84.2785C73.1708 83.3509 73.7686 82.0929 73.7686 80.7812C73.7686 79.4695 73.1708 78.2115 72.1066 77.284C71.0424 76.3564 69.5991 75.8353 68.0941 75.8353H47.2873V69.2409H56.7449C60.2554 69.2374 63.6208 68.0204 66.1031 65.8569C68.5853 63.6934 69.9816 60.7601 69.9856 57.7005C69.9856 57.2633 69.7863 56.8439 69.4316 56.5348C69.0768 56.2256 68.5957 56.0519 68.0941 56.0519H56.7449C54.9816 56.0515 53.2362 56.3593 51.6117 56.9571C49.9873 57.5549 48.5168 58.4305 47.2873 59.5321V52.7547H81.3347ZM34.0467 69.2409C31.8672 69.2388 29.7552 68.5817 28.0668 67.3804C26.3784 66.1791 25.2169 64.5071 24.7783 62.6464H34.0467C36.2262 62.6485 38.3382 63.3055 40.0266 64.5068C41.715 65.7081 42.8765 67.3801 43.3152 69.2409H34.0467ZM61.2278 95.6188H29.5638L26.963 85.7271H63.8287L61.2278 95.6188ZM69.9856 80.7812C69.9856 81.2184 69.7863 81.6378 69.4316 81.947C69.0768 82.2561 68.5957 82.4298 68.0941 82.4298H22.6976C22.1959 82.4298 21.7148 82.2561 21.3601 81.947C21.0054 81.6378 20.8061 81.2184 20.8061 80.7812C20.8061 80.344 21.0054 79.9246 21.3601 79.6155C21.7148 79.3063 22.1959 79.1326 22.6976 79.1326H68.0941C68.5957 79.1326 69.0768 79.3063 69.4316 79.6155C69.7863 79.9246 69.9856 80.344 69.9856 80.7812ZM56.7449 59.3491H66.0134C65.5747 61.2099 64.4132 62.8819 62.7249 64.0832C61.0365 65.2844 58.9245 65.9415 56.7449 65.9436H47.4765C47.9152 64.0829 49.0766 62.4109 50.765 61.2096C52.4534 60.0083 54.5654 59.3512 56.7449 59.3491ZM79.4432 49.4574H49.962L53.745 46.1602H79.4432V49.4574ZM53.745 9.8905H79.4432V42.8629H52.9619C52.4603 42.863 51.9792 43.0368 51.6246 43.346L47.2873 47.1263V15.5189L53.745 9.8905ZM11.3485 9.8905H37.0467L43.5043 15.5189V47.1263L39.1671 43.346C38.8124 43.0368 38.3314 42.863 37.8297 42.8629H11.3485V9.8905ZM11.3485 49.4574V46.1602H37.0467L40.8297 49.4574H11.3485Z" fill="#004C54"/>
<path d="M37.8302 21.4319H17.0234V24.7293H37.8302V21.4319Z" fill="#004C54"/>
<path d="M24.5904 14.8372H20.8074V18.1345H24.5904V14.8372Z" fill="#004C54"/>
<path d="M37.8306 14.8372H28.373V18.1345H37.8306V14.8372Z" fill="#004C54"/>
<path d="M37.8302 28.0266H17.0234V31.324H37.8302V28.0266Z" fill="#004C54"/>
<path d="M37.8302 34.6216H17.0234V37.9186H37.8302V34.6216Z" fill="#004C54"/>
<path d="M73.7689 28.0266H52.9622V31.324H73.7689V28.0266Z" fill="#004C54"/>
<path d="M73.7689 34.6216H52.9622V37.9186H73.7689V34.6216Z" fill="#004C54"/>
<path d="M54.8537 24.729H71.8774C72.379 24.729 72.8602 24.5553 73.2149 24.2461C73.5696 23.9369 73.7689 23.5176 73.7689 23.0803V16.4858C73.7689 16.0485 73.5696 15.6292 73.2149 15.32C72.8602 15.0109 72.379 14.8372 71.8774 14.8372H54.8537C54.352 14.8372 53.8709 15.0109 53.5162 15.32C53.1614 15.6292 52.9622 16.0485 52.9622 16.4858V23.0803C52.9622 23.5176 53.1614 23.9369 53.5162 24.2461C53.8709 24.5553 54.352 24.729 54.8537 24.729ZM56.7452 18.1344H69.9859V21.4317H56.7452V18.1344Z" fill="#004C54"/>
<path d="M3.78304 6.59449C3.78304 5.72001 4.18161 4.88134 4.89107 4.26298C5.60053 3.64463 6.56276 3.29724 7.56608 3.29724H15.1322V0H7.56608C5.55943 0 3.63497 0.694775 2.21605 1.93148C0.797138 3.16819 0 4.84552 0 6.59449V31.3238H3.78304V6.59449Z" fill="#004C54"/>
<path d="M3.78298 34.6216H0V37.9186H3.78298V34.6216Z" fill="#004C54"/>
<path d="M90.7925 14.8372H87.0095V41.2149H90.7925V14.8372Z" fill="#004C54"/>
</svg>